<?xml version="1.0" encoding="UTF-8" standalone="no"?>
<!-- Created with Inkscape (http://www.inkscape.org/) -->

<svg
   width="64"
   height="64"
   viewBox="0 0 64 64"
   version="1.1"
   id="svg1"
   xml:space="preserve"
   inkscape:version="1.3.1 (91b66b0783, 2023-11-16)"
   sodipodi:docname="TerrainFill.svg"
   inkscape:export-filename="terrain_fill.png"
   inkscape:export-xdpi="96"
   inkscape:export-ydpi="96"
   xmlns:inkscape="http://www.inkscape.org/namespaces/inkscape"
   xmlns:sodipodi="http://sodipodi.sourceforge.net/DTD/sodipodi-0.dtd"
   xmlns="http://www.w3.org/2000/svg"
   xmlns:svg="http://www.w3.org/2000/svg"><sodipodi:namedview
     id="namedview1"
     pagecolor="#505050"
     bordercolor="#ffffff"
     borderopacity="1"
     inkscape:showpageshadow="0"
     inkscape:pageopacity="0"
     inkscape:pagecheckerboard="1"
     inkscape:deskcolor="#d1d1d1"
     inkscape:document-units="px"
     inkscape:zoom="17.213631"
     inkscape:cx="28.146299"
     inkscape:cy="52.603661"
     inkscape:window-width="1920"
     inkscape:window-height="1017"
     inkscape:window-x="-8"
     inkscape:window-y="-8"
     inkscape:window-maximized="1"
     inkscape:current-layer="layer1" /><defs
     id="defs1" /><g
     inkscape:label="Layer 1"
     inkscape:groupmode="layer"
     id="layer1"><path
       style="fill:#008000;fill-rule:evenodd;stroke:#000000;stroke-width:1px;stroke-linecap:butt;stroke-linejoin:miter;stroke-opacity:1"
       d="M 20.949936,29.905006 C 17.57173,28.145393 9.1444636,28.715444 11.255456,35.16303 l 1.725289,7.887034 c 0.683001,1.667695 1.281658,4.600536 2.382541,0 l 0.73941,-10.433889 1.314506,-1.314506 z"
       id="path3"
       sodipodi:nodetypes="ccccccc" /><ellipse
       style="fill:none;stroke:#000000;stroke-width:1;stroke-linecap:round;stroke-linejoin:round;stroke-dasharray:none;stroke-opacity:0.979839;paint-order:markers stroke fill"
       id="path4"
       cx="39.147625"
       cy="21.237484"
       rx="5.7098846"
       ry="15.568678" /><ellipse
       style="fill:none;stroke-width:0;stroke-linecap:round;stroke-linejoin:round;stroke-opacity:0.979839;paint-order:markers stroke fill;stroke:#000000;stroke-dasharray:none"
       id="path2"
       cx="38.408211"
       cy="20.785622"
       rx="5.134788"
       ry="17.088575" /><path
       style="fill:#008000;fill-rule:evenodd;stroke:#000000;stroke-width:1px;stroke-linecap:butt;stroke-linejoin:miter;stroke-opacity:1"
       d="m 2.8754814,58.495507 c 1.8947506,-1.424459 3.7309962,-2.922048 4.7650834,-5.422336 4.9162992,-9.563114 8.9649542,-7.702236 12.5699612,0 0.837937,1.974538 1.787009,3.874985 4.559692,4.559692 1.887664,-1.487501 3.765213,-2.992343 7.148744,-1.9155 l 6.280918,3.077211"
       id="path5"
       sodipodi:nodetypes="cccccc" /><path
       style="fill:#f9f9f9;fill-rule:evenodd;stroke:#000000;stroke-width:1px;stroke-linecap:butt;stroke-linejoin:miter;stroke-opacity:1"
       d="m 37.179838,19.054667 -21.68126,12.856887 c 3.015956,0 6.735801,0.660635 8.203569,4.338788 l 11.502512,20.448911 c 1.62987,1.781236 3.379504,2.125306 5.228415,1.278057 L 55.481,49.277381 c 2.058253,-1.188333 2.5736,-3.88674 0.985879,-6.636754 L 42.989188,19.867976 c -1.235662,-2.140229 -3.879747,-1.927366 -5.80935,-0.813309 z"
       id="path1"
       sodipodi:nodetypes="ccccccccc" /></g></svg>
