<?xml version="1.0" encoding="UTF-8" standalone="no"?>
<!-- Created with Inkscape (http://www.inkscape.org/) -->

<svg
   width="40"
   height="40"
   viewBox="0 0 40 40"
   version="1.1"
   id="svg1"
   xml:space="preserve"
   inkscape:version="1.3.1 (91b66b0783, 2023-11-16)"
   sodipodi:docname="fill_terrain.svg"
   inkscape:export-filename="fill_terrain.png"
   inkscape:export-xdpi="96"
   inkscape:export-ydpi="96"
   xmlns:inkscape="http://www.inkscape.org/namespaces/inkscape"
   xmlns:sodipodi="http://sodipodi.sourceforge.net/DTD/sodipodi-0.dtd"
   xmlns="http://www.w3.org/2000/svg"
   xmlns:svg="http://www.w3.org/2000/svg"><sodipodi:namedview
     id="namedview1"
     pagecolor="#505050"
     bordercolor="#ffffff"
     borderopacity="1"
     inkscape:showpageshadow="0"
     inkscape:pageopacity="0"
     inkscape:pagecheckerboard="1"
     inkscape:deskcolor="#d1d1d1"
     inkscape:document-units="px"
     inkscape:zoom="8"
     inkscape:cx="13.0625"
     inkscape:cy="22.3125"
     inkscape:window-width="1920"
     inkscape:window-height="1017"
     inkscape:window-x="-8"
     inkscape:window-y="-8"
     inkscape:window-maximized="1"
     inkscape:current-layer="layer1" /><defs
     id="defs1" /><g
     inkscape:label="Layer 1"
     inkscape:groupmode="layer"
     id="layer1"><ellipse
       style="fill:none;stroke:#000000;stroke-linecap:round;stroke-linejoin:round;stroke-opacity:0.979839;paint-order:markers stroke fill"
       id="path2"
       cx="25.183531"
       cy="12.112494"
       rx="6.2450509"
       ry="8.045949" /><path
       style="fill:#f9f9f9;fill-rule:evenodd;stroke:#000000;stroke-width:1px;stroke-linecap:butt;stroke-linejoin:miter;stroke-opacity:1"
       d="M 35.843688,13.071037 H 11.444419 l 5.576976,5.576975 V 32.06761 c 0,3.053164 2.390373,5.200387 5.170321,5.170321 h 8.946398 c 2.985144,0 4.850807,-2.158477 4.850807,-4.850807 z"
       id="path1"
       sodipodi:nodetypes="cccccccc" /><path
       style="fill:#008000;fill-rule:evenodd;stroke:#000000;stroke-width:1px;stroke-linecap:butt;stroke-linejoin:miter;stroke-opacity:1"
       d="m 2.0913659,37.005557 c 1.4253252,-0.693053 2.7324622,-1.622482 3.5437033,-3.543703 2.6161407,-5.966439 5.3620518,-5.979904 8.0749958,0 0.681835,1.207988 1.787305,2.34537 3.39847,3.39847"
       id="path3"
       sodipodi:nodetypes="cccc" /><path
       style="fill:#008000;fill-rule:evenodd;stroke:#000000;stroke-width:1px;stroke-linecap:butt;stroke-linejoin:miter;stroke-opacity:1"
       d="m 9.7597076,16.44046 c 0.7837534,2.925007 3.8563214,6.16818 2.3512604,8.775022 -1.693885,2.688156 -3.3877701,2.578519 -5.0816549,0 -1.4623822,-2.53292 1.820263,-5.850015 2.7303945,-8.775022 z"
       id="path4"
       sodipodi:nodetypes="cccc" /><path
       style="fill:#f9f9f9;fill-rule:evenodd;stroke:none;stroke-width:1px;stroke-linecap:butt;stroke-linejoin:miter;stroke-opacity:1"
       d="m 6.7969391,31.777142 c 0.1387569,1.036518 0.1152032,2.181244 1.1426169,2.625324 1.348257,-0.381537 1.3106186,-1.752999 1.6488869,-2.855956 0.4847061,0.919491 0.1139508,2.205608 1.5651351,2.710894 0.813322,0.02886 1.121114,-1.07972 1.320976,-2.431145 -2.5747353,-4.780958 -5.1265431,-0.890504 -5.6776149,-0.04912 z"
       id="path5"
       sodipodi:nodetypes="cccccc" /></g></svg>
